<svg width="395" height="34" viewBox="0 0 395 34" fill="none" xmlns="http://www.w3.org/2000/svg">
<path d="M0 26.964V1.764H4.68V26.964H0Z" fill="#E3E3E3" fill-opacity="0.3"/>
<path d="M10.5961 11.16L12.6841 3.168L13.2961 5.868C12.4561 5.868 11.7481 5.604 11.1721 5.076C10.6201 4.548 10.3441 3.84 10.3441 2.952C10.3441 2.064 10.6201 1.356 11.1721 0.828C11.7481 0.276 12.4441 0 13.2601 0C14.1001 0 14.7961 0.276 15.3481 0.828C15.9001 1.38 16.1761 2.088 16.1761 2.952C16.1761 3.216 16.1521 3.492 16.1041 3.78C16.0801 4.044 16.0081 4.356 15.8881 4.716C15.7921 5.052 15.6241 5.496 15.3841 6.048L13.5121 11.16H10.5961Z" fill="#E3E3E3" fill-opacity="0.3"/>
<path d="M45.5572 7.524C47.0932 7.524 48.4492 7.824 49.6252 8.424C50.8252 9.024 51.7612 9.948 52.4332 11.196C53.1052 12.42 53.4412 14.004 53.4412 15.948V26.964H48.9412V16.524C48.9412 14.82 48.5692 13.548 47.8252 12.708C47.0812 11.868 46.0132 11.448 44.6212 11.448C43.6372 11.448 42.7612 11.664 41.9932 12.096C41.2492 12.528 40.6612 13.164 40.2292 14.004C39.8212 14.844 39.6172 15.912 39.6172 17.208V26.964H35.1172V16.524C35.1172 14.82 34.7452 13.548 34.0012 12.708C33.2572 11.868 32.1892 11.448 30.7972 11.448C29.8132 11.448 28.9372 11.664 28.1692 12.096C27.4252 12.528 26.8372 13.164 26.4052 14.004C25.9972 14.844 25.7932 15.912 25.7932 17.208V26.964H21.2932V7.74H25.5772V12.852L24.8212 11.34C25.4692 10.092 26.4052 9.144 27.6292 8.496C28.8772 7.848 30.2932 7.524 31.8772 7.524C33.6772 7.524 35.2372 7.968 36.5572 8.856C37.9012 9.744 38.7892 11.088 39.2212 12.888L37.4572 12.276C38.0812 10.836 39.1132 9.684 40.5532 8.82C41.9932 7.956 43.6612 7.524 45.5572 7.524Z" fill="#E3E3E3" fill-opacity="0.3"/>
<path d="M82.4248 26.964V23.076L82.1728 22.248V15.444C82.1728 14.124 81.7768 13.104 80.9848 12.384C80.1928 11.64 78.9928 11.268 77.3848 11.268C76.3048 11.268 75.2368 11.436 74.1808 11.772C73.1488 12.108 72.2728 12.576 71.5528 13.176L69.7888 9.9C70.8208 9.108 72.0448 8.52 73.4608 8.136C74.9008 7.728 76.3888 7.524 77.9248 7.524C80.7088 7.524 82.8568 8.196 84.3688 9.54C85.9048 10.86 86.6728 12.912 86.6728 15.696V26.964H82.4248ZM76.3768 27.216C74.9368 27.216 73.6768 26.976 72.5968 26.496C71.5168 25.992 70.6768 25.308 70.0768 24.444C69.5008 23.556 69.2128 22.56 69.2128 21.456C69.2128 20.376 69.4648 19.404 69.9688 18.54C70.4968 17.676 71.3488 16.992 72.5248 16.488C73.7008 15.984 75.2608 15.732 77.2048 15.732H82.7848V18.72H77.5288C75.9928 18.72 74.9608 18.972 74.4328 19.476C73.9048 19.956 73.6408 20.556 73.6408 21.276C73.6408 22.092 73.9648 22.74 74.6128 23.22C75.2608 23.7 76.1608 23.94 77.3128 23.94C78.4168 23.94 79.4008 23.688 80.2648 23.184C81.1528 22.68 81.7888 21.936 82.1728 20.952L82.9288 23.652C82.4968 24.78 81.7168 25.656 80.5888 26.28C79.4848 26.904 78.0808 27.216 76.3768 27.216Z" fill="#E3E3E3" fill-opacity="0.3"/>
<path d="M110.209 26.964L101.857 1.764H106.717L114.169 24.552H111.757L119.497 1.764H123.817L131.341 24.552H129.001L136.633 1.764H141.097L132.745 26.964H127.777L120.901 6.408H122.197L115.213 26.964H110.209Z" fill="#E3E3E3" fill-opacity="0.3"/>
<path d="M152.792 27.216C150.656 27.216 148.784 26.796 147.176 25.956C145.592 25.092 144.356 23.916 143.468 22.428C142.604 20.94 142.172 19.248 142.172 17.352C142.172 15.432 142.592 13.74 143.432 12.276C144.296 10.788 145.472 9.624 146.96 8.784C148.472 7.944 150.188 7.524 152.108 7.524C153.98 7.524 155.648 7.932 157.112 8.748C158.576 9.564 159.728 10.716 160.568 12.204C161.408 13.692 161.828 15.444 161.828 17.46C161.828 17.652 161.816 17.868 161.792 18.108C161.792 18.348 161.78 18.576 161.756 18.792H145.736V15.804H159.38L157.616 16.74C157.64 15.636 157.412 14.664 156.932 13.824C156.452 12.984 155.792 12.324 154.952 11.844C154.136 11.364 153.188 11.124 152.108 11.124C151.004 11.124 150.032 11.364 149.192 11.844C148.376 12.324 147.728 12.996 147.248 13.86C146.792 14.7 146.564 15.696 146.564 16.848V17.568C146.564 18.72 146.828 19.74 147.356 20.628C147.884 21.516 148.628 22.2 149.588 22.68C150.548 23.16 151.652 23.4 152.9 23.4C153.98 23.4 154.952 23.232 155.816 22.896C156.68 22.56 157.448 22.032 158.12 21.312L160.532 24.084C159.668 25.092 158.576 25.872 157.256 26.424C155.96 26.952 154.472 27.216 152.792 27.216Z" fill="#E3E3E3" fill-opacity="0.3"/>
<path d="M177.527 27.216C175.895 27.216 174.443 26.856 173.171 26.136C171.899 25.416 170.891 24.336 170.147 22.896C169.427 21.432 169.067 19.584 169.067 17.352C169.067 15.096 169.439 13.248 170.183 11.808C170.951 10.368 171.971 9.3 173.243 8.604C174.539 7.884 175.967 7.524 177.527 7.524C179.423 7.524 181.091 7.932 182.531 8.748C183.995 9.564 185.147 10.704 185.987 12.168C186.851 13.632 187.283 15.36 187.283 17.352C187.283 19.344 186.851 21.072 185.987 22.536C185.147 24 183.995 25.152 182.531 25.992C181.091 26.808 179.423 27.216 177.527 27.216ZM166.871 26.964V0.251999H171.371V12.204L171.011 17.316L171.155 22.428V26.964H166.871ZM177.023 23.364C178.103 23.364 179.063 23.124 179.903 22.644C180.767 22.164 181.451 21.468 181.955 20.556C182.459 19.644 182.711 18.576 182.711 17.352C182.711 16.104 182.459 15.036 181.955 14.148C181.451 13.236 180.767 12.54 179.903 12.06C179.063 11.58 178.103 11.34 177.023 11.34C175.943 11.34 174.971 11.58 174.107 12.06C173.243 12.54 172.559 13.236 172.055 14.148C171.551 15.036 171.299 16.104 171.299 17.352C171.299 18.576 171.551 19.644 172.055 20.556C172.559 21.468 173.243 22.164 174.107 22.644C174.971 23.124 175.943 23.364 177.023 23.364Z" fill="#E3E3E3" fill-opacity="0.3"/>
<path d="M203.372 26.964V1.764H214.388C217.124 1.764 219.524 2.292 221.588 3.348C223.652 4.404 225.26 5.868 226.412 7.74C227.564 9.612 228.14 11.82 228.14 14.364C228.14 16.884 227.564 19.092 226.412 20.988C225.26 22.86 223.652 24.324 221.588 25.38C219.524 26.436 217.124 26.964 214.388 26.964H203.372ZM208.052 23.004H214.172C216.068 23.004 217.7 22.644 219.068 21.924C220.46 21.204 221.528 20.196 222.272 18.9C223.04 17.604 223.424 16.092 223.424 14.364C223.424 12.612 223.04 11.1 222.272 9.828C221.528 8.532 220.46 7.524 219.068 6.804C217.7 6.084 216.068 5.724 214.172 5.724H208.052V23.004Z" fill="#E3E3E3" fill-opacity="0.3"/>
<path d="M242.438 27.216C240.302 27.216 238.43 26.796 236.822 25.956C235.238 25.092 234.002 23.916 233.114 22.428C232.25 20.94 231.818 19.248 231.818 17.352C231.818 15.432 232.238 13.74 233.078 12.276C233.942 10.788 235.118 9.624 236.606 8.784C238.118 7.944 239.834 7.524 241.754 7.524C243.626 7.524 245.294 7.932 246.758 8.748C248.222 9.564 249.374 10.716 250.214 12.204C251.054 13.692 251.474 15.444 251.474 17.46C251.474 17.652 251.462 17.868 251.438 18.108C251.438 18.348 251.426 18.576 251.402 18.792H235.382V15.804H249.026L247.262 16.74C247.286 15.636 247.058 14.664 246.578 13.824C246.098 12.984 245.438 12.324 244.598 11.844C243.782 11.364 242.834 11.124 241.754 11.124C240.65 11.124 239.678 11.364 238.838 11.844C238.022 12.324 237.374 12.996 236.894 13.86C236.438 14.7 236.21 15.696 236.21 16.848V17.568C236.21 18.72 236.474 19.74 237.002 20.628C237.53 21.516 238.274 22.2 239.234 22.68C240.194 23.16 241.298 23.4 242.546 23.4C243.626 23.4 244.598 23.232 245.462 22.896C246.326 22.56 247.094 22.032 247.766 21.312L250.178 24.084C249.314 25.092 248.222 25.872 246.902 26.424C245.606 26.952 244.118 27.216 242.438 27.216Z" fill="#E3E3E3" fill-opacity="0.3"/>
<path d="M261.277 26.964L253.033 7.74H257.713L264.805 24.696H262.501L269.845 7.74H274.165L265.921 26.964H261.277Z" fill="#E3E3E3" fill-opacity="0.3"/>
<path d="M286.206 27.216C284.07 27.216 282.198 26.796 280.59 25.956C279.006 25.092 277.77 23.916 276.882 22.428C276.018 20.94 275.586 19.248 275.586 17.352C275.586 15.432 276.006 13.74 276.846 12.276C277.71 10.788 278.886 9.624 280.374 8.784C281.886 7.944 283.602 7.524 285.522 7.524C287.394 7.524 289.062 7.932 290.526 8.748C291.99 9.564 293.142 10.716 293.982 12.204C294.822 13.692 295.242 15.444 295.242 17.46C295.242 17.652 295.23 17.868 295.206 18.108C295.206 18.348 295.194 18.576 295.17 18.792H279.15V15.804H292.794L291.03 16.74C291.054 15.636 290.826 14.664 290.346 13.824C289.866 12.984 289.206 12.324 288.366 11.844C287.55 11.364 286.602 11.124 285.522 11.124C284.418 11.124 283.446 11.364 282.606 11.844C281.79 12.324 281.142 12.996 280.662 13.86C280.206 14.7 279.978 15.696 279.978 16.848V17.568C279.978 18.72 280.242 19.74 280.77 20.628C281.298 21.516 282.042 22.2 283.002 22.68C283.962 23.16 285.066 23.4 286.314 23.4C287.394 23.4 288.366 23.232 289.23 22.896C290.094 22.56 290.862 22.032 291.534 21.312L293.946 24.084C293.082 25.092 291.99 25.872 290.67 26.424C289.374 26.952 287.886 27.216 286.206 27.216Z" fill="#E3E3E3" fill-opacity="0.3"/>
<path d="M300.285 26.964V0.251999H304.785V26.964H300.285Z" fill="#E3E3E3" fill-opacity="0.3"/>
<path d="M320.051 27.216C318.083 27.216 316.331 26.796 314.795 25.956C313.259 25.092 312.047 23.916 311.159 22.428C310.271 20.94 309.827 19.248 309.827 17.352C309.827 15.432 310.271 13.74 311.159 12.276C312.047 10.788 313.259 9.624 314.795 8.784C316.331 7.944 318.083 7.524 320.051 7.524C322.043 7.524 323.807 7.944 325.343 8.784C326.903 9.624 328.115 10.776 328.979 12.24C329.867 13.704 330.311 15.408 330.311 17.352C330.311 19.248 329.867 20.94 328.979 22.428C328.115 23.916 326.903 25.092 325.343 25.956C323.807 26.796 322.043 27.216 320.051 27.216ZM320.051 23.364C321.155 23.364 322.139 23.124 323.003 22.644C323.867 22.164 324.539 21.468 325.019 20.556C325.523 19.644 325.775 18.576 325.775 17.352C325.775 16.104 325.523 15.036 325.019 14.148C324.539 13.236 323.867 12.54 323.003 12.06C322.139 11.58 321.167 11.34 320.087 11.34C318.983 11.34 317.999 11.58 317.135 12.06C316.295 12.54 315.623 13.236 315.119 14.148C314.615 15.036 314.363 16.104 314.363 17.352C314.363 18.576 314.615 19.644 315.119 20.556C315.623 21.468 316.295 22.164 317.135 22.644C317.999 23.124 318.971 23.364 320.051 23.364Z" fill="#E3E3E3" fill-opacity="0.3"/>
<path d="M345.99 27.216C344.43 27.216 343.002 26.856 341.706 26.136C340.434 25.416 339.414 24.336 338.646 22.896C337.902 21.432 337.53 19.584 337.53 17.352C337.53 15.096 337.89 13.248 338.61 11.808C339.354 10.368 340.362 9.3 341.634 8.604C342.906 7.884 344.358 7.524 345.99 7.524C347.886 7.524 349.554 7.932 350.994 8.748C352.458 9.564 353.61 10.704 354.45 12.168C355.314 13.632 355.746 15.36 355.746 17.352C355.746 19.344 355.314 21.084 354.45 22.572C353.61 24.036 352.458 25.176 350.994 25.992C349.554 26.808 347.886 27.216 345.99 27.216ZM335.334 33.948V7.74H339.618V12.276L339.474 17.388L339.834 22.5V33.948H335.334ZM345.486 23.364C346.566 23.364 347.526 23.124 348.366 22.644C349.23 22.164 349.914 21.468 350.418 20.556C350.922 19.644 351.174 18.576 351.174 17.352C351.174 16.104 350.922 15.036 350.418 14.148C349.914 13.236 349.23 12.54 348.366 12.06C347.526 11.58 346.566 11.34 345.486 11.34C344.406 11.34 343.434 11.58 342.57 12.06C341.706 12.54 341.022 13.236 340.518 14.148C340.014 15.036 339.762 16.104 339.762 17.352C339.762 18.576 340.014 19.644 340.518 20.556C341.022 21.468 341.706 22.164 342.57 22.644C343.434 23.124 344.406 23.364 345.486 23.364Z" fill="#E3E3E3" fill-opacity="0.3"/>
<path d="M369.77 27.216C367.634 27.216 365.762 26.796 364.154 25.956C362.57 25.092 361.334 23.916 360.446 22.428C359.582 20.94 359.15 19.248 359.15 17.352C359.15 15.432 359.57 13.74 360.41 12.276C361.274 10.788 362.45 9.624 363.938 8.784C365.45 7.944 367.166 7.524 369.086 7.524C370.958 7.524 372.626 7.932 374.09 8.748C375.554 9.564 376.706 10.716 377.546 12.204C378.386 13.692 378.806 15.444 378.806 17.46C378.806 17.652 378.794 17.868 378.77 18.108C378.77 18.348 378.758 18.576 378.734 18.792H362.714V15.804H376.358L374.594 16.74C374.618 15.636 374.39 14.664 373.91 13.824C373.43 12.984 372.77 12.324 371.93 11.844C371.114 11.364 370.166 11.124 369.086 11.124C367.982 11.124 367.01 11.364 366.17 11.844C365.354 12.324 364.706 12.996 364.226 13.86C363.77 14.7 363.542 15.696 363.542 16.848V17.568C363.542 18.72 363.806 19.74 364.334 20.628C364.862 21.516 365.606 22.2 366.566 22.68C367.526 23.16 368.63 23.4 369.878 23.4C370.958 23.4 371.93 23.232 372.794 22.896C373.658 22.56 374.426 22.032 375.098 21.312L377.51 24.084C376.646 25.092 375.554 25.872 374.234 26.424C372.938 26.952 371.45 27.216 369.77 27.216Z" fill="#E3E3E3" fill-opacity="0.3"/>
<path d="M383.848 26.964V7.74H388.132V13.032L387.628 11.484C388.204 10.188 389.104 9.204 390.328 8.532C391.576 7.86 393.124 7.524 394.972 7.524V11.808C394.78 11.76 394.6 11.736 394.432 11.736C394.264 11.712 394.096 11.7 393.928 11.7C392.224 11.7 390.868 12.204 389.86 13.212C388.852 14.196 388.348 15.672 388.348 17.64V26.964H383.848Z" fill="#E3E3E3" fill-opacity="0.3"/>
</svg>
