<svg width="75" height="75" viewBox="0 0 75 75" fill="none" xmlns="http://www.w3.org/2000/svg">
<rect x="37.4766" y="1.41421" width="51" height="51" transform="rotate(45 37.4766 1.41421)" stroke="#489CC2" stroke-width="2"/>
<path d="M29.6602 31.0898C29.8477 31.0898 29.9922 31.125 30.0938 31.1953C30.1953 31.2578 30.2695 31.375 30.3164 31.5469C30.3711 31.7188 30.3984 31.9688 30.3984 32.2969C30.3984 32.625 30.3711 32.875 30.3164 33.0469C30.2695 33.2188 30.1953 33.3359 30.0938 33.3984C29.9922 33.4609 29.8477 33.4922 29.6602 33.4922H29.1445L25.1367 39.6211V42.5977H27.4336C27.6211 42.5977 27.7656 42.6328 27.8672 42.7031C27.9688 42.7656 28.043 42.8828 28.0898 43.0547C28.1445 43.2266 28.1719 43.4766 28.1719 43.8047C28.1719 44.1328 28.1445 44.3828 28.0898 44.5547C28.043 44.7266 27.9688 44.8438 27.8672 44.9062C27.7656 44.9688 27.6211 45 27.4336 45H19.9102C19.7227 45 19.5781 44.9688 19.4766 44.9062C19.375 44.8438 19.2969 44.7266 19.2422 44.5547C19.1953 44.3828 19.1719 44.1328 19.1719 43.8047C19.1719 43.4766 19.1953 43.2266 19.2422 43.0547C19.2969 42.8828 19.375 42.7656 19.4766 42.7031C19.5781 42.6328 19.7227 42.5977 19.9102 42.5977H22.207V39.6094L18.2227 33.4922H17.6836C17.4961 33.4922 17.3516 33.4609 17.25 33.3984C17.1484 33.3359 17.0703 33.2188 17.0156 33.0469C16.9688 32.875 16.9453 32.625 16.9453 32.2969C16.9453 31.9688 16.9688 31.7188 17.0156 31.5469C17.0703 31.375 17.1484 31.2578 17.25 31.1953C17.3516 31.125 17.4961 31.0898 17.6836 31.0898H22.3008C22.4883 31.0898 22.6328 31.125 22.7344 31.1953C22.8359 31.2578 22.9102 31.375 22.957 31.5469C23.0117 31.7188 23.0391 31.9688 23.0391 32.2969C23.0391 32.625 23.0117 32.875 22.957 33.0469C22.9102 33.2188 22.8359 33.3359 22.7344 33.3984C22.6328 33.4609 22.4883 33.4922 22.3008 33.4922H21.5156L23.6953 36.9141L25.8984 33.4922H25.2773C25.0898 33.4922 24.9453 33.4609 24.8438 33.3984C24.7422 33.3359 24.6641 33.2188 24.6094 33.0469C24.5625 32.875 24.5391 32.625 24.5391 32.2969C24.5391 31.9688 24.5625 31.7188 24.6094 31.5469C24.6641 31.375 24.7422 31.2578 24.8438 31.1953C24.9453 31.125 25.0898 31.0898 25.2773 31.0898H29.6602ZM38.5312 31.0898C40.1641 31.0898 41.3711 31.4258 42.1523 32.0977C42.9414 32.7617 43.3359 33.6875 43.3359 34.875C43.3359 35.5156 43.1758 36.0664 42.8555 36.5273C42.543 36.9805 42.1016 37.3438 41.5312 37.6172C43.3203 38.1016 44.2148 39.2188 44.2148 40.9688C44.2148 42.2891 43.7812 43.293 42.9141 43.9805C42.0469 44.6602 40.8047 45 39.1875 45H32.4258C32.2383 45 32.0938 44.9688 31.9922 44.9062C31.8906 44.8438 31.8125 44.7266 31.7578 44.5547C31.7109 44.3828 31.6875 44.1328 31.6875 43.8047C31.6875 43.4766 31.7109 43.2266 31.7578 43.0547C31.8125 42.8828 31.8906 42.7656 31.9922 42.7031C32.0938 42.6328 32.2383 42.5977 32.4258 42.5977H33.6797V33.4922H32.4258C32.2383 33.4922 32.0938 33.4609 31.9922 33.3984C31.8906 33.3359 31.8125 33.2188 31.7578 33.0469C31.7109 32.875 31.6875 32.625 31.6875 32.2969C31.6875 31.9688 31.7109 31.7188 31.7578 31.5469C31.8125 31.375 31.8906 31.2578 31.9922 31.1953C32.0938 31.125 32.2383 31.0898 32.4258 31.0898H38.5312ZM36.6094 36.6328H38.2734C38.9766 36.6328 39.5 36.5078 39.8438 36.2578C40.1875 36.0078 40.3594 35.625 40.3594 35.1094C40.3594 34.5859 40.1914 34.207 39.8555 33.9727C39.5273 33.7305 39 33.6094 38.2734 33.6094H36.6094V36.6328ZM36.6094 42.4805H38.8594C40.375 42.4805 41.1328 41.9375 41.1328 40.8516C41.1328 40.2734 40.9453 39.8477 40.5703 39.5742C40.2031 39.293 39.6328 39.1523 38.8594 39.1523H36.6094V42.4805ZM53.1094 31.0898C54.9062 31.0898 56.2656 31.4961 57.1875 32.3086C58.1172 33.1133 58.582 34.2773 58.582 35.8008C58.582 37.3242 58.1172 38.4922 57.1875 39.3047C56.2656 40.1172 54.9062 40.5234 53.1094 40.5234H51.3516V42.5977H53.8945C54.082 42.5977 54.2266 42.6328 54.3281 42.7031C54.4297 42.7656 54.5039 42.8828 54.5508 43.0547C54.6055 43.2266 54.6328 43.4766 54.6328 43.8047C54.6328 44.1328 54.6055 44.3828 54.5508 44.5547C54.5039 44.7266 54.4297 44.8438 54.3281 44.9062C54.2266 44.9688 54.082 45 53.8945 45H46.6992C46.5117 45 46.3672 44.9688 46.2656 44.9062C46.1641 44.8438 46.0859 44.7266 46.0312 44.5547C45.9844 44.3828 45.9609 44.1328 45.9609 43.8047C45.9609 43.4766 45.9844 43.2266 46.0312 43.0547C46.0859 42.8828 46.1641 42.7656 46.2656 42.7031C46.3672 42.6328 46.5117 42.5977 46.6992 42.5977H48.4219V33.4922H46.6992C46.5117 33.4922 46.3672 33.4609 46.2656 33.3984C46.1641 33.3359 46.0859 33.2188 46.0312 33.0469C45.9844 32.875 45.9609 32.625 45.9609 32.2969C45.9609 31.9688 45.9844 31.7188 46.0312 31.5469C46.0859 31.375 46.1641 31.2578 46.2656 31.1953C46.3672 31.125 46.5117 31.0898 46.6992 31.0898H53.1094ZM51.3516 38.0039H52.7461C53.6758 38.0039 54.375 37.8242 54.8438 37.4648C55.3203 37.1055 55.5586 36.5508 55.5586 35.8008C55.5586 35.0508 55.3203 34.5 54.8438 34.1484C54.375 33.7891 53.6758 33.6094 52.7461 33.6094H51.3516V38.0039Z" fill="#489CC2"/>
</svg>
