<svg width="488" height="61" viewBox="0 0 488 61" fill="none" xmlns="http://www.w3.org/2000/svg">
<path d="M31.032 6.20008H41.4V51.0001H31.032V6.20008ZM10.68 51.0001H0.312012V6.20008H10.68V51.0001ZM31.8 32.6321H9.91201V23.8641H31.8V32.6321Z" fill="#DAD9D7"/>
<path d="M52.5755 51.0001V16.5681H62.5595V51.0001H52.5755ZM57.5675 11.7681C55.7328 11.7681 54.2395 11.2347 53.0875 10.1681C51.9355 9.10142 51.3595 7.77875 51.3595 6.20008C51.3595 4.62141 51.9355 3.29875 53.0875 2.23208C54.2395 1.16541 55.7328 0.63208 57.5675 0.63208C59.4022 0.63208 60.8955 1.14408 62.0475 2.16808C63.1995 3.14942 63.7755 4.42942 63.7755 6.00808C63.7755 7.67208 63.1995 9.05875 62.0475 10.1681C60.9382 11.2347 59.4448 11.7681 57.5675 11.7681Z" fill="#DAD9D7"/>
<path d="M71.3775 60.8561L75.6015 45.4961L77.0095 51.2561C75.1748 51.2561 73.6602 50.7227 72.4655 49.6561C71.3135 48.5894 70.7375 47.1174 70.7375 45.2401C70.7375 43.3627 71.3348 41.8694 72.5295 40.7601C73.7242 39.6507 75.1962 39.0961 76.9455 39.0961C78.7375 39.0961 80.2095 39.6721 81.3615 40.8241C82.5135 41.9334 83.0895 43.4054 83.0895 45.2401C83.0895 45.7947 83.0469 46.3494 82.9615 46.9041C82.8762 47.4161 82.7055 48.0561 82.4495 48.8241C82.2362 49.5494 81.8735 50.4881 81.3615 51.6401L77.7135 60.8561H71.3775Z" fill="#DAD9D7"/>
<path d="M111.245 51.0001V6.20008H121.613V51.0001H111.245Z" fill="#DAD9D7"/>
<path d="M131.093 24.7601L135.317 9.40008L136.725 15.2241C134.89 15.2241 133.375 14.6907 132.181 13.6241C131.029 12.5147 130.453 11.0214 130.453 9.14408C130.453 7.30942 131.05 5.83742 132.245 4.72808C133.439 3.57608 134.911 3.00008 136.661 3.00008C138.453 3.00008 139.925 3.57608 141.077 4.72808C142.229 5.83742 142.805 7.30942 142.805 9.14408C142.805 9.69875 142.762 10.2534 142.677 10.8081C142.634 11.3201 142.485 11.9387 142.229 12.6641C142.015 13.3894 141.653 14.3494 141.141 15.5441L137.429 24.7601H131.093Z" fill="#DAD9D7"/>
<path d="M194.947 16.0561C197.677 16.0561 200.088 16.6107 202.179 17.7201C204.312 18.7867 205.976 20.4507 207.171 22.7121C208.408 24.9307 209.027 27.7894 209.027 31.2881V51.0001H199.043V32.8241C199.043 30.0507 198.467 28.0028 197.315 26.6801C196.163 25.3574 194.541 24.6961 192.451 24.6961C191 24.6961 189.699 25.0374 188.547 25.7201C187.395 26.3601 186.499 27.3414 185.859 28.6641C185.219 29.9868 184.899 31.6721 184.899 33.7201V51.0001H174.915V32.8241C174.915 30.0507 174.339 28.0028 173.187 26.6801C172.077 25.3574 170.477 24.6961 168.387 24.6961C166.936 24.6961 165.635 25.0374 164.483 25.7201C163.331 26.3601 162.435 27.3414 161.795 28.6641C161.155 29.9868 160.835 31.6721 160.835 33.7201V51.0001H150.851V16.5681H160.387V25.9761L158.595 23.2241C159.789 20.8774 161.475 19.1067 163.651 17.9121C165.869 16.6747 168.387 16.0561 171.203 16.0561C174.36 16.0561 177.112 16.8668 179.459 18.4881C181.848 20.0667 183.427 22.4987 184.195 25.7841L180.675 24.8241C181.827 22.1361 183.661 20.0027 186.179 18.4241C188.739 16.8454 191.661 16.0561 194.947 16.0561Z" fill="#DAD9D7"/>
<path d="M250.501 51.0001V32.6961L252.869 38.9681L233.157 6.20008H244.165L259.268 31.3521H252.933L268.1 6.20008H278.277L258.565 38.9681L260.868 32.6961V51.0001H250.501Z" fill="#DAD9D7"/>
<path d="M300.123 51.0001V44.2801L299.483 42.8081V30.7761C299.483 28.6428 298.822 26.9787 297.499 25.7841C296.219 24.5894 294.235 23.9921 291.547 23.9921C289.712 23.9921 287.899 24.2908 286.107 24.8881C284.358 25.4428 282.864 26.2108 281.627 27.1921L278.043 20.2161C279.92 18.8934 282.182 17.8694 284.827 17.1441C287.472 16.4187 290.16 16.0561 292.891 16.0561C298.139 16.0561 302.214 17.2934 305.115 19.7681C308.016 22.2427 309.467 26.1041 309.467 31.3521V51.0001H300.123ZM289.627 51.5121C286.939 51.5121 284.635 51.0641 282.715 50.1681C280.795 49.2294 279.323 47.9707 278.299 46.3921C277.275 44.8134 276.763 43.0428 276.763 41.0801C276.763 39.0321 277.254 37.2401 278.235 35.7041C279.259 34.1681 280.859 32.9734 283.035 32.1201C285.211 31.2241 288.048 30.7761 291.547 30.7761H300.699V36.6001H292.635C290.288 36.6001 288.667 36.9841 287.771 37.7521C286.918 38.5201 286.491 39.4801 286.491 40.6321C286.491 41.9121 286.982 42.9361 287.963 43.7041C288.987 44.4294 290.374 44.7921 292.123 44.7921C293.787 44.7921 295.28 44.4081 296.603 43.6401C297.926 42.8294 298.886 41.6561 299.483 40.1201L301.019 44.7281C300.294 46.9468 298.971 48.6321 297.051 49.7841C295.131 50.9361 292.656 51.5121 289.627 51.5121Z" fill="#DAD9D7"/>
<path d="M331.367 51.5121C328.423 51.5121 325.586 51.1707 322.855 50.4881C320.167 49.7627 318.034 48.8667 316.455 47.8001L319.783 40.6321C321.362 41.6134 323.218 42.4241 325.351 43.0641C327.527 43.6614 329.66 43.9601 331.751 43.9601C334.055 43.9601 335.676 43.6827 336.615 43.1281C337.596 42.5734 338.087 41.8054 338.087 40.8241C338.087 40.0134 337.703 39.4161 336.935 39.0321C336.21 38.6054 335.228 38.2854 333.991 38.0721C332.754 37.8587 331.388 37.6454 329.895 37.4321C328.444 37.2188 326.972 36.9414 325.479 36.6001C323.986 36.2161 322.62 35.6614 321.383 34.9361C320.146 34.2107 319.143 33.2294 318.375 31.9921C317.65 30.7547 317.287 29.1548 317.287 27.1921C317.287 25.0161 317.906 23.0961 319.143 21.4321C320.423 19.7681 322.258 18.4667 324.647 17.5281C327.036 16.5468 329.895 16.0561 333.223 16.0561C335.57 16.0561 337.959 16.3121 340.391 16.8241C342.823 17.3361 344.85 18.0827 346.471 19.0641L343.143 26.1681C341.479 25.1867 339.794 24.5254 338.087 24.1841C336.423 23.8001 334.802 23.6081 333.223 23.6081C331.004 23.6081 329.383 23.9067 328.359 24.5041C327.335 25.1014 326.823 25.8694 326.823 26.8081C326.823 27.6614 327.186 28.3014 327.911 28.7281C328.679 29.1547 329.682 29.4961 330.919 29.7521C332.156 30.0081 333.5 30.2428 334.951 30.4561C336.444 30.6268 337.938 30.9041 339.431 31.2881C340.924 31.6721 342.268 32.2267 343.463 32.9521C344.7 33.6348 345.703 34.5948 346.471 35.8321C347.239 37.0268 347.623 38.6054 347.623 40.5681C347.623 42.7014 346.983 44.6001 345.703 46.2641C344.423 47.8854 342.567 49.1654 340.135 50.1041C337.746 51.0428 334.823 51.5121 331.367 51.5121Z" fill="#DAD9D7"/>
<path d="M376.183 51.0001V44.2801L375.543 42.8081V30.7761C375.543 28.6428 374.882 26.9787 373.559 25.7841C372.279 24.5894 370.295 23.9921 367.607 23.9921C365.772 23.9921 363.959 24.2908 362.167 24.8881C360.418 25.4428 358.924 26.2108 357.687 27.1921L354.103 20.2161C355.98 18.8934 358.242 17.8694 360.887 17.1441C363.532 16.4187 366.22 16.0561 368.951 16.0561C374.199 16.0561 378.274 17.2934 381.175 19.7681C384.076 22.2427 385.527 26.1041 385.527 31.3521V51.0001H376.183ZM365.687 51.5121C362.999 51.5121 360.695 51.0641 358.775 50.1681C356.855 49.2294 355.383 47.9707 354.359 46.3921C353.335 44.8134 352.823 43.0428 352.823 41.0801C352.823 39.0321 353.314 37.2401 354.295 35.7041C355.319 34.1681 356.919 32.9734 359.095 32.1201C361.271 31.2241 364.108 30.7761 367.607 30.7761H376.759V36.6001H368.695C366.348 36.6001 364.727 36.9841 363.831 37.7521C362.978 38.5201 362.551 39.4801 362.551 40.6321C362.551 41.9121 363.042 42.9361 364.023 43.7041C365.047 44.4294 366.434 44.7921 368.183 44.7921C369.847 44.7921 371.34 44.4081 372.663 43.6401C373.986 42.8294 374.946 41.6561 375.543 40.1201L377.079 44.7281C376.354 46.9468 375.031 48.6321 373.111 49.7841C371.191 50.9361 368.716 51.5121 365.687 51.5121Z" fill="#DAD9D7"/>
<path d="M407.427 51.5121C404.483 51.5121 401.646 51.1707 398.915 50.4881C396.227 49.7627 394.094 48.8667 392.515 47.8001L395.843 40.6321C397.422 41.6134 399.278 42.4241 401.411 43.0641C403.587 43.6614 405.72 43.9601 407.811 43.9601C410.115 43.9601 411.736 43.6827 412.675 43.1281C413.656 42.5734 414.147 41.8054 414.147 40.8241C414.147 40.0134 413.763 39.4161 412.995 39.0321C412.27 38.6054 411.288 38.2854 410.051 38.0721C408.814 37.8587 407.448 37.6454 405.955 37.4321C404.504 37.2188 403.032 36.9414 401.539 36.6001C400.046 36.2161 398.68 35.6614 397.443 34.9361C396.206 34.2107 395.203 33.2294 394.435 31.9921C393.71 30.7547 393.347 29.1548 393.347 27.1921C393.347 25.0161 393.966 23.0961 395.203 21.4321C396.483 19.7681 398.318 18.4667 400.707 17.5281C403.096 16.5468 405.955 16.0561 409.283 16.0561C411.63 16.0561 414.019 16.3121 416.451 16.8241C418.883 17.3361 420.91 18.0827 422.531 19.0641L419.203 26.1681C417.539 25.1867 415.854 24.5254 414.147 24.1841C412.483 23.8001 410.862 23.6081 409.283 23.6081C407.064 23.6081 405.443 23.9067 404.419 24.5041C403.395 25.1014 402.883 25.8694 402.883 26.8081C402.883 27.6614 403.246 28.3014 403.971 28.7281C404.739 29.1547 405.742 29.4961 406.979 29.7521C408.216 30.0081 409.56 30.2428 411.011 30.4561C412.504 30.6268 413.998 30.9041 415.491 31.2881C416.984 31.6721 418.328 32.2267 419.523 32.9521C420.76 33.6348 421.763 34.5948 422.531 35.8321C423.299 37.0268 423.683 38.6054 423.683 40.5681C423.683 42.7014 423.043 44.6001 421.763 46.2641C420.483 47.8854 418.627 49.1654 416.195 50.1041C413.806 51.0428 410.883 51.5121 407.427 51.5121Z" fill="#DAD9D7"/>
<path d="M452.051 16.0561C454.782 16.0561 457.214 16.6107 459.347 17.7201C461.523 18.7867 463.23 20.4507 464.467 22.7121C465.704 24.9307 466.323 27.7894 466.323 31.2881V51.0001H456.339V32.8241C456.339 30.0507 455.72 28.0028 454.483 26.6801C453.288 25.3574 451.582 24.6961 449.363 24.6961C447.784 24.6961 446.355 25.0374 445.075 25.7201C443.838 26.3601 442.856 27.3627 442.131 28.7281C441.448 30.0934 441.107 31.8427 441.107 33.9761V51.0001H431.123V3.51208H441.107V26.1041L438.867 23.2241C440.104 20.9201 441.875 19.1494 444.179 17.9121C446.483 16.6747 449.107 16.0561 452.051 16.0561Z" fill="#DAD9D7"/>
<path d="M476.653 51.0001V16.5681H486.637V51.0001H476.653ZM481.645 11.7681C479.81 11.7681 478.317 11.2347 477.165 10.1681C476.013 9.10142 475.437 7.77875 475.437 6.20008C475.437 4.62141 476.013 3.29875 477.165 2.23208C478.317 1.16541 479.81 0.63208 481.645 0.63208C483.48 0.63208 484.973 1.14408 486.125 2.16808C487.277 3.14942 487.853 4.42942 487.853 6.00808C487.853 7.67208 487.277 9.05875 486.125 10.1681C485.016 11.2347 483.522 11.7681 481.645 11.7681Z" fill="#DAD9D7"/>
</svg>
